<?xml version="1.0" standalone="no"?>
<!DOCTYPE svg PUBLIC "-//W3C//DTD SVG 20010904//EN"
 "http://www.w3.org/TR/2001/REC-SVG-20010904/DTD/svg10.dtd">
<svg version="1.0" xmlns="http://www.w3.org/2000/svg"
 width="561.000000pt" height="561.000000pt" viewBox="0 0 561.000000 561.000000"
 preserveAspectRatio="xMidYMid meet">
<metadata>
Created by potrace 1.14, written by Peter Selinger 2001-2017
</metadata>
<g transform="translate(0.000000,561.000000) scale(0.100000,-0.100000)"
fill="#000000" stroke="none">
<path d="M2550 5512 c0 -5 -22 -8 -50 -8 -27 1 -50 -1 -50 -5 0 -3 -10 -5 -22
-4 -13 1 -31 -2 -40 -6 -10 -6 -19 -5 -23 1 -5 8 -11 8 -20 0 -8 -6 -27 -12
-44 -12 -17 -1 -31 -4 -31 -8 0 -3 -10 -7 -22 -7 -53 -4 -78 -8 -78 -15 0 -4
-9 -5 -20 -3 -11 2 -20 -1 -20 -7 0 -6 -3 -8 -7 -5 -3 4 -13 1 -21 -6 -13 -9
-14 -9 -8 0 5 9 2 11 -8 7 -9 -3 -16 -10 -16 -15 0 -5 -3 -8 -7 -7 -5 1 -24
-4 -43 -11 -19 -8 -38 -13 -42 -12 -5 0 -8 -4 -8 -10 0 -5 -4 -7 -10 -4 -5 3
-10 1 -10 -4 0 -6 -3 -10 -7 -10 -20 3 -34 -2 -28 -11 3 -6 -1 -7 -9 -4 -9 3
-16 1 -16 -5 0 -6 -9 -11 -19 -11 -11 0 -21 -3 -23 -7 -5 -12 -66 -53 -78 -53
-5 0 -10 -4 -10 -10 0 -5 -7 -10 -16 -10 -8 0 -12 -4 -9 -10 3 -5 1 -10 -5
-10 -14 0 -25 -9 -125 -108 -47 -46 -85 -88 -85 -93 0 -6 -4 -8 -9 -4 -5 3
-13 -5 -17 -17 -4 -13 -14 -28 -23 -35 -9 -7 -12 -13 -6 -13 5 0 -1 -7 -13
-16 -12 -8 -20 -20 -17 -25 4 -5 1 -9 -4 -9 -6 0 -11 -7 -11 -15 0 -8 -4 -15
-10 -15 -5 0 -10 -7 -10 -15 0 -8 -5 -15 -11 -15 -5 0 -8 -4 -5 -9 3 -5 0 -14
-8 -20 -14 -12 -31 -58 -27 -74 1 -5 -2 -6 -7 -3 -8 5 -36 -52 -39 -77 -1 -4
-9 -19 -17 -32 -9 -13 -18 -32 -19 -42 -2 -10 -10 -31 -16 -48 -7 -16 -14 -34
-15 -40 -5 -26 -29 -91 -36 -99 -5 -5 -6 -15 -3 -22 3 -8 1 -14 -5 -14 -5 0
-7 -11 -4 -25 2 -14 0 -25 -6 -25 -6 0 -9 -11 -7 -25 1 -14 -1 -25 -5 -25 -4
0 -7 -6 -8 -12 0 -7 -3 -24 -6 -38 -3 -13 -8 -40 -11 -60 -3 -20 -8 -47 -10
-60 -3 -14 -6 -42 -7 -62 -1 -21 -6 -38 -12 -38 -6 0 -6 -4 2 -12 8 -8 8 -17
1 -31 -8 -15 -8 -18 1 -12 9 5 10 2 3 -11 -5 -11 -9 -61 -9 -111 1 -56 -3 -93
-9 -93 -5 0 -3 -5 5 -10 13 -9 13 -10 0 -10 -13 0 -13 -1 0 -11 11 -8 12 -12
2 -16 -6 -2 -9 -9 -6 -15 3 -5 7 -46 7 -91 1 -45 6 -85 12 -89 6 -5 5 -8 -3
-8 -9 0 -10 -5 -2 -19 7 -14 7 -22 0 -26 -7 -4 -7 -11 -2 -18 5 -7 8 -22 7
-34 -1 -13 3 -23 9 -23 6 0 4 -5 -4 -10 -8 -5 -10 -10 -5 -10 6 0 10 -16 10
-35 -1 -19 1 -35 4 -35 3 0 7 -19 8 -43 3 -74 5 -87 14 -87 5 0 9 -5 9 -11 0
-5 -5 -7 -11 -3 -8 4 -8 0 0 -15 7 -11 8 -21 4 -21 -4 0 -1 -5 7 -10 13 -9 13
-11 0 -20 -12 -7 -12 -10 -1 -10 7 0 11 -6 7 -15 -3 -8 -2 -15 2 -15 4 0 8
-12 9 -28 3 -28 10 -65 13 -69 2 -2 3 -6 4 -10 18 -88 30 -133 35 -133 4 0 7
-8 8 -17 2 -29 10 -67 17 -85 4 -9 9 -23 10 -32 1 -8 5 -19 9 -22 4 -4 7 -17
7 -29 0 -11 5 -26 12 -33 7 -7 8 -12 3 -12 -6 0 -3 -5 5 -10 13 -9 13 -10 0
-10 -9 0 -11 -3 -5 -8 9 -6 43 -88 49 -117 1 -5 8 -20 14 -32 7 -13 10 -23 7
-23 -3 0 0 -10 7 -22 7 -13 11 -26 10 -30 -1 -5 2 -8 7 -8 8 0 19 -28 27 -70
2 -8 8 -16 14 -18 5 -2 8 -8 4 -13 -3 -5 0 -9 6 -9 7 0 10 -7 6 -15 -3 -8 -1
-15 4 -15 6 0 10 -7 10 -15 0 -9 11 -33 24 -54 14 -21 22 -42 19 -45 -4 -3 -1
-6 6 -6 7 0 10 -4 6 -9 -3 -5 2 -16 10 -24 8 -9 15 -23 15 -31 0 -9 4 -16 8
-16 5 0 15 -16 22 -35 8 -20 20 -41 27 -47 7 -5 10 -14 7 -19 -3 -5 0 -9 5 -9
6 0 11 -7 11 -15 0 -8 4 -15 9 -15 5 0 13 -10 17 -22 4 -13 10 -25 14 -28 4
-3 19 -26 34 -52 15 -27 32 -48 37 -48 5 0 8 -3 7 -7 -3 -10 33 -66 49 -76 7
-4 13 -15 13 -22 0 -8 5 -15 10 -15 6 0 10 -5 10 -11 0 -16 26 -39 35 -31 5 4
5 2 1 -5 -3 -6 5 -23 19 -37 14 -14 23 -26 20 -26 -3 0 13 -19 36 -43 23 -23
42 -43 41 -44 -7 -10 0 -23 12 -23 8 0 17 -9 21 -19 3 -11 12 -22 20 -25 8 -3
15 -13 15 -22 0 -10 3 -14 7 -11 3 4 18 -8 34 -26 15 -17 36 -42 47 -54 10
-13 22 -20 26 -16 3 3 6 -1 6 -10 0 -8 9 -19 20 -22 11 -3 20 -13 20 -21 0 -8
4 -14 8 -14 8 0 73 -53 128 -106 18 -17 35 -29 38 -26 3 3 8 -3 12 -12 3 -9
12 -16 20 -16 8 0 14 -5 14 -11 0 -5 4 -8 9 -5 5 3 12 -1 15 -10 3 -8 19 -20
36 -25 16 -6 28 -14 26 -18 -2 -3 13 -15 35 -25 21 -11 39 -23 39 -28 0 -5 4
-7 9 -4 4 3 19 -3 31 -14 12 -11 27 -17 31 -14 5 3 9 1 9 -4 0 -10 147 -85
167 -85 7 0 13 -4 13 -8 0 -4 17 -13 38 -20 20 -6 42 -14 47 -18 6 -3 19 -7
29 -8 11 -2 25 -8 33 -14 7 -6 13 -9 13 -5 0 3 12 1 28 -5 15 -6 43 -13 62
-16 19 -3 38 -10 42 -17 5 -8 8 -7 8 3 0 9 4 10 13 4 6 -6 19 -11 27 -11 55
-3 109 -10 119 -16 6 -4 11 -1 11 6 0 8 3 9 8 2 8 -12 81 -12 101 0 9 6 12 5
7 -2 -7 -12 32 -11 53 2 8 5 17 3 22 -5 5 -8 9 -9 9 -4 0 6 15 11 33 12 61 4
92 8 105 16 7 5 12 3 12 -4 0 -9 4 -9 15 1 8 6 19 9 25 5 5 -3 10 -1 10 4 0 6
11 11 25 11 14 0 25 4 25 8 0 7 18 11 63 12 9 1 15 5 12 11 -4 5 2 9 12 9 10
0 47 16 83 35 98 52 134 68 143 66 5 -1 6 3 3 8 -4 5 3 12 14 16 11 3 20 12
20 18 0 7 4 6 10 -3 8 -13 10 -12 10 3 0 10 5 15 10 12 6 -3 10 -1 10 5 0 6 5
8 10 5 6 -3 10 -1 10 4 0 6 3 10 8 8 7 -2 22 8 61 44 9 8 23 13 29 11 7 -2 12
1 12 7 0 6 18 23 40 37 22 15 37 30 34 35 -3 5 4 9 16 9 12 0 19 4 15 9 -3 5
4 13 16 16 11 4 18 9 15 12 -2 3 11 18 30 35 19 16 31 34 28 39 -4 8 7 13 27
11 3 0 11 8 18 20 10 16 10 19 -1 13 -7 -5 1 5 17 21 17 16 35 36 40 45 6 9
23 36 40 60 16 24 28 47 27 52 -1 4 5 7 14 7 8 0 13 4 10 9 -8 13 4 42 15 35
5 -3 9 4 9 15 0 12 5 21 10 21 6 0 10 6 10 13 0 25 56 128 65 120 5 -4 3 0 -4
10 -12 15 -9 21 11 18 4 0 5 8 3 19 -2 11 1 22 6 25 5 4 7 11 4 16 -4 5 -1 9
4 9 6 0 11 5 11 11 0 5 -6 7 -12 4 -7 -4 -5 0 4 7 9 8 19 28 22 44 2 16 5 31
6 34 1 3 2 8 1 12 0 5 3 8 8 8 6 0 10 8 9 18 0 9 3 28 7 42 4 14 7 31 7 38 1
6 4 12 8 12 3 0 7 17 8 37 2 21 6 40 10 43 4 3 7 14 8 25 2 34 12 83 20 96 5
8 3 9 -6 4 -10 -6 -11 -4 -4 6 5 8 9 26 10 42 1 15 3 29 4 32 1 3 3 13 4 23 1
9 5 22 9 29 4 6 3 14 -3 18 -6 4 -7 12 -3 18 4 7 8 37 10 67 1 30 2 55 3 55 8
0 3 182 -5 187 -7 5 -7 8 0 8 6 0 9 25 8 57 -1 32 -2 58 -3 58 0 0 -3 33 -4
73 -2 40 -7 76 -10 79 -3 3 -1 12 5 20 9 10 8 13 -1 13 -7 0 -10 8 -7 20 3 10
0 21 -7 24 -7 3 -6 5 3 5 11 1 11 4 1 16 -7 8 -9 15 -6 15 4 0 2 10 -5 21 -8
16 -8 20 1 14 9 -5 9 -1 -1 16 -7 13 -12 25 -11 27 1 1 2 3 1 5 0 1 -2 16 -4
32 -3 27 -11 71 -19 115 -2 8 -8 26 -13 40 -6 15 -7 26 -1 28 5 2 4 10 -2 17
-10 12 -19 39 -24 75 -1 8 -8 26 -15 39 -11 19 -11 22 1 15 11 -6 11 -5 0 8
-7 9 -15 31 -17 48 -3 18 -10 39 -16 46 -7 8 -9 17 -6 21 4 3 3 11 -2 17 -6 7
-12 23 -15 38 -2 14 -9 35 -14 45 -6 10 -10 20 -10 23 -1 12 -61 170 -73 192
-5 10 -9 25 -9 33 0 8 -4 15 -10 15 -5 0 -10 8 -10 18 0 10 -5 23 -10 28 -6 6
-13 21 -15 34 -2 13 -10 27 -17 32 -7 4 -9 8 -5 8 5 0 0 16 -12 36 -12 19 -21
42 -21 50 0 8 -5 14 -11 14 -5 0 -7 5 -4 10 3 6 0 12 -7 15 -8 3 -15 15 -15
28 -1 12 -7 23 -13 25 -5 2 -10 10 -10 18 0 8 -5 14 -11 14 -5 0 -8 4 -4 9 3
5 -2 16 -10 25 -9 8 -16 18 -15 21 1 21 -1 25 -10 20 -5 -3 -10 1 -10 10 0 9
-7 23 -15 32 -8 8 -13 19 -10 24 4 5 2 9 -3 9 -5 0 -20 20 -33 45 -13 25 -27
45 -31 45 -5 0 -8 7 -8 15 0 8 -4 15 -10 15 -5 0 -10 7 -10 15 0 8 -4 15 -9
15 -5 0 -14 14 -21 30 -7 17 -15 30 -19 30 -3 0 -17 18 -31 40 -13 22 -28 40
-32 40 -4 0 -8 6 -8 14 0 8 -7 17 -16 20 -8 3 -13 10 -9 15 3 5 -4 12 -15 16
-11 4 -18 11 -15 16 4 5 1 9 -4 9 -6 0 -11 7 -11 15 0 8 -7 15 -15 15 -8 0
-15 4 -15 9 0 4 -12 20 -26 35 -15 14 -24 26 -21 26 3 0 -28 34 -69 75 -40 42
-77 74 -80 73 -4 -2 -10 7 -15 20 -5 12 -15 22 -24 22 -8 0 -15 7 -15 16 0 9
-9 18 -20 21 -11 3 -17 9 -14 14 3 5 -2 9 -11 9 -9 0 -13 5 -10 10 4 6 3 10
-2 9 -20 -3 -34 2 -28 11 3 6 -1 10 -9 10 -9 0 -16 5 -16 11 0 5 -4 7 -10 4
-5 -3 -10 1 -10 10 0 9 -5 13 -10 10 -6 -3 -13 1 -16 9 -3 9 -10 16 -16 16 -5
0 -16 6 -23 13 -33 28 -45 37 -45 32 0 -3 -10 3 -22 15 -12 11 -28 20 -35 20
-7 0 -13 4 -13 9 0 5 -13 14 -30 21 -16 7 -30 17 -30 22 0 5 -4 6 -10 3 -5 -3
-10 -1 -10 6 0 7 -3 10 -6 6 -4 -3 -13 1 -21 9 -8 8 -19 12 -24 9 -5 -4 -9 -2
-9 2 0 8 -81 47 -89 43 -2 -1 -7 3 -10 9 -4 6 -17 12 -30 14 -12 2 -26 8 -29
13 -4 5 -14 9 -22 9 -8 0 -21 6 -28 15 -8 8 -10 9 -7 2 6 -10 3 -11 -11 -3
-27 14 -58 24 -66 23 -5 -1 -8 3 -8 9 0 5 -5 7 -10 4 -6 -4 -16 -2 -23 3 -7 5
-20 8 -29 7 -10 -2 -18 1 -18 5 0 5 -9 7 -20 5 -11 -2 -20 0 -20 5 0 4 -17 10
-37 13 -67 9 -103 16 -113 22 -6 3 -10 1 -10 -6 0 -8 -3 -9 -13 0 -8 6 -17 8
-20 4 -4 -3 -13 0 -21 6 -9 8 -16 8 -20 2 -5 -7 -15 -7 -31 -1 -18 7 -25 6
-25 -3 0 -8 -3 -8 -9 2 -6 9 -11 10 -15 2 -4 -6 -13 -8 -19 -4 -16 10 -37 10
-64 1 -14 -4 -23 -3 -23 2 0 6 -4 10 -10 10 -5 0 -10 -4 -10 -8z m-110 -585
c0 4 15 7 32 6 18 -1 33 -2 33 -4 0 -2 5 -2 86 -12 25 -4 57 -11 71 -16 14 -5
29 -7 33 -3 3 3 9 1 13 -5 4 -6 19 -14 32 -16 14 -2 38 -9 53 -16 16 -6 33 -8
39 -5 7 4 8 2 4 -4 -5 -8 0 -12 13 -12 11 0 23 -4 26 -10 3 -5 15 -10 26 -10
10 0 19 -5 19 -11 0 -5 5 -7 10 -4 6 3 10 1 10 -5 0 -7 6 -10 12 -8 7 3 21 -4
32 -14 11 -10 26 -18 33 -18 7 0 13 -4 13 -10 0 -5 6 -10 13 -10 7 0 23 -9 35
-20 12 -11 24 -20 27 -20 21 1 25 -2 25 -16 0 -8 4 -13 10 -9 5 3 18 -3 30
-15 11 -11 25 -20 30 -20 6 0 10 -4 10 -10 0 -5 7 -10 15 -10 8 0 15 -4 15
-10 0 -5 7 -10 15 -10 8 0 15 -7 15 -17 0 -9 3 -14 6 -10 7 7 16 0 89 -70 29
-28 56 -49 59 -45 6 5 10 -14 7 -30 0 -5 3 -7 8 -5 10 2 80 -70 133 -135 18
-23 43 -52 56 -65 12 -13 22 -28 22 -32 0 -4 9 -16 20 -26 11 -10 20 -24 20
-30 0 -7 7 -15 15 -19 8 -3 15 -12 15 -21 0 -8 5 -15 12 -15 6 0 9 -3 5 -6 -3
-4 1 -13 9 -21 8 -8 12 -19 8 -24 -3 -5 0 -8 8 -7 7 2 12 -3 11 -9 -2 -7 2
-13 7 -13 6 0 10 -7 10 -15 0 -8 4 -15 8 -15 5 0 14 -16 22 -35 8 -19 16 -35
19 -35 4 0 13 -15 20 -32 8 -18 21 -39 28 -46 7 -8 11 -18 8 -23 -4 -5 -1 -9
4 -9 6 0 11 -6 11 -14 0 -7 7 -19 15 -26 8 -7 15 -19 15 -28 0 -8 8 -24 18
-35 12 -15 13 -19 2 -13 -8 4 -7 1 3 -7 10 -9 18 -18 17 -21 0 -4 11 -31 25
-61 14 -31 25 -62 25 -69 0 -7 7 -19 15 -26 8 -7 13 -16 10 -20 -3 -5 -1 -11
5 -15 5 -3 10 -17 10 -30 0 -13 4 -25 10 -27 5 -1 11 -15 12 -30 1 -16 6 -28
11 -28 5 0 7 -7 4 -15 -4 -8 -2 -17 4 -20 5 -4 7 -11 4 -16 -4 -5 -1 -9 6 -9
6 0 9 -8 6 -20 -3 -11 -2 -20 3 -20 4 0 11 -17 15 -37 4 -21 11 -44 17 -50 7
-9 7 -13 -1 -13 -8 0 -7 -7 3 -22 7 -13 12 -31 11 -40 -2 -10 1 -18 6 -18 6 0
8 -4 4 -9 -3 -5 0 -13 6 -17 8 -5 8 -8 -1 -14 -8 -5 -8 -11 4 -22 11 -11 12
-18 3 -27 -7 -7 -8 -11 0 -11 6 0 11 -11 12 -25 1 -14 2 -36 3 -50 1 -14 5
-25 8 -25 3 0 7 -21 8 -47 4 -74 6 -87 17 -95 6 -5 5 -8 -3 -8 -8 0 -10 -5 -5
-12 9 -16 12 -44 16 -179 2 -58 7 -111 12 -119 5 -8 4 -11 -1 -7 -6 3 -10 -33
-9 -94 0 -54 -3 -99 -6 -99 -3 0 -5 -11 -4 -25 2 -14 -1 -25 -6 -25 -6 0 -5
-8 1 -20 6 -11 7 -20 2 -20 -5 0 -8 -16 -7 -35 1 -19 -2 -35 -7 -35 -5 0 -6
-11 -4 -25 3 -13 1 -27 -4 -30 -5 -3 -9 -13 -9 -23 -1 -34 -7 -67 -14 -79 -5
-7 -5 -17 -2 -23 3 -5 1 -10 -5 -10 -6 0 -9 -4 -6 -9 3 -5 -1 -25 -9 -44 -8
-19 -11 -37 -8 -41 4 -3 1 -6 -6 -6 -7 0 -9 -4 -6 -10 3 -5 2 -10 -2 -10 -5 0
-9 -10 -10 -22 -1 -11 -7 -24 -13 -28 -7 -4 -11 -10 -11 -14 3 -16 -12 -56
-21 -56 -5 0 -6 -4 -3 -10 3 -5 1 -10 -4 -10 -6 0 -10 -3 -9 -7 4 -12 -26 -73
-35 -73 -5 0 -5 -5 -2 -10 3 -6 2 -10 -4 -10 -5 0 -13 -9 -16 -20 -4 -11 -18
-33 -31 -50 -14 -16 -22 -35 -18 -41 4 -8 3 -9 -4 -5 -7 4 -12 4 -12 -1 0 -8
-20 -31 -93 -113 -18 -19 -44 -41 -59 -49 -16 -8 -28 -18 -28 -23 0 -4 -9 -8
-19 -8 -11 0 -27 -7 -35 -16 -12 -12 -16 -12 -16 -2 0 9 -3 9 -8 2 -4 -6 -15
-10 -24 -8 -10 1 -18 -2 -18 -6 0 -5 -8 -9 -17 -9 -10 1 -36 -2 -58 -6 -79
-12 -175 -13 -175 -1 0 8 -3 8 -8 0 -9 -13 -72 -13 -72 1 0 5 -5 3 -10 -5 -5
-8 -10 -10 -10 -3 0 6 -13 10 -30 9 -16 -1 -30 1 -30 5 0 4 -6 6 -12 6 -28 -2
-108 16 -108 24 0 5 -13 9 -29 9 -17 0 -33 5 -36 10 -4 6 -10 8 -15 5 -5 -3
-11 -1 -15 5 -4 6 -11 8 -16 5 -5 -4 -9 -1 -9 5 0 6 -4 8 -10 5 -5 -3 -10 -1
-10 5 0 6 -4 9 -8 6 -5 -3 -20 2 -33 12 -13 9 -28 17 -34 18 -15 3 -71 34 -61
34 6 0 1 7 -10 15 -10 8 -17 15 -14 15 3 1 12 3 20 5 32 7 70 25 70 34 0 5 6
9 13 8 18 -1 77 26 77 35 0 4 7 8 15 8 8 0 15 5 15 12 0 6 3 8 7 5 3 -4 12 -2
19 4 7 6 42 12 78 14 35 1 70 6 77 10 8 6 10 4 4 -4 -6 -10 -3 -11 14 -1 12 6
32 12 44 14 24 3 71 22 157 64 30 15 60 27 65 27 6 0 19 8 29 18 11 9 26 17
33 17 7 0 13 5 13 11 0 5 4 8 8 5 5 -3 18 4 30 14 12 11 24 20 28 20 4 0 23
17 43 37 20 21 40 36 45 35 5 -2 6 4 3 12 -3 8 1 17 9 20 8 3 14 12 14 21 0 8
5 15 11 15 5 0 7 5 4 10 -3 6 -2 10 2 10 10 0 43 74 43 95 0 8 4 15 8 15 5 0
8 10 7 22 -1 13 1 28 4 33 4 6 7 17 6 25 0 8 2 32 6 53 4 22 2 37 -4 37 -5 0
-4 7 3 15 10 12 10 15 -1 15 -11 0 -11 3 1 11 12 8 12 12 2 16 -10 4 -10 8 -1
19 6 8 8 14 3 14 -5 0 -9 21 -8 48 0 26 -3 52 -8 59 -6 7 -7 17 -4 22 4 5 2
12 -3 15 -5 3 -7 15 -4 25 3 10 0 22 -6 25 -5 4 -8 13 -4 21 3 8 0 15 -5 15
-6 0 -9 9 -7 20 2 11 0 20 -6 20 -5 0 -9 7 -9 15 0 19 -29 77 -42 86 -5 3 -9
8 -7 10 5 9 -13 49 -22 49 -5 0 -9 6 -9 13 0 7 -14 29 -31 50 -17 20 -27 41
-24 47 3 5 1 10 -5 10 -6 0 -18 7 -26 15 -9 8 -13 15 -10 15 3 0 -19 25 -50
55 -31 30 -61 55 -66 55 -5 0 -6 5 -3 10 3 6 1 10 -5 10 -12 0 -32 15 -58 43
-9 9 -23 17 -31 17 -8 0 -11 3 -8 7 4 4 -7 13 -24 20 -17 7 -28 17 -24 23 3 5
-1 10 -10 10 -9 0 -21 5 -28 10 -31 26 -86 58 -91 52 -3 -3 -6 0 -6 6 0 7 -5
12 -11 12 -6 0 -17 7 -26 15 -8 8 -18 13 -23 10 -8 -5 -25 23 -22 38 1 4 -2 7
-6 7 -7 0 -8 92 -2 110 6 15 4 47 -2 61 -5 10 -2 22 6 28 8 7 16 8 18 2 1 -5
12 -11 23 -13 11 -1 23 -6 26 -10 3 -5 17 -9 32 -10 15 -1 27 -6 27 -10 0 -4
8 -8 18 -8 10 0 24 -6 31 -12 11 -11 12 -10 6 0 -5 10 1 10 23 -2 17 -9 38
-16 46 -16 8 0 22 -7 30 -16 12 -12 16 -12 16 -2 0 10 3 9 10 -2 5 -8 10 -11
10 -7 0 4 9 3 20 -3 45 -24 93 -21 175 11 44 18 86 37 93 42 7 5 15 7 19 4 3
-4 12 1 20 11 10 11 12 12 8 2 -4 -8 2 -4 13 10 13 15 18 30 12 40 -4 8 -6 23
-4 34 1 10 -1 29 -6 42 -6 16 -6 24 1 24 6 0 7 6 2 13 -10 16 -15 37 -14 65 1
16 -3 21 -12 16 -8 -5 -7 -2 2 9 9 12 10 17 2 17 -7 0 -9 5 -6 10 4 6 1 18 -7
27 -11 14 -11 16 2 8 12 -7 13 -6 3 6 -6 8 -14 26 -16 39 -8 48 -65 172 -108
235 -41 60 -109 130 -122 127 -7 -2 -9 -1 -5 3 4 4 -4 17 -17 29 -49 45 -75
66 -75 59 0 -3 -8 4 -19 15 -10 12 -23 22 -30 22 -6 0 -11 5 -11 10 0 6 -5 10
-10 10 -6 0 -20 9 -32 20 -12 11 -28 20 -35 20 -7 0 -13 5 -13 10 0 6 -7 10
-15 10 -9 0 -18 7 -21 15 -4 8 -10 12 -15 9 -5 -3 -20 7 -35 21 -14 14 -30 23
-35 20 -11 -7 -11 -2 -13 136 -2 142 -7 148 -146 153 -36 2 -72 -1 -81 -5 -8
-4 -26 -9 -40 -11 -13 -2 -28 -6 -34 -9 -29 -17 -63 -18 -76 -2 -12 14 -12 16
1 8 12 -7 13 -6 4 6 -6 8 -10 24 -8 37 2 12 -1 22 -7 22 -5 0 -8 4 -4 9 7 13
-35 27 -103 35 -35 4 -160 -18 -200 -34 -17 -7 -21 -7 -16 1 4 7 -2 6 -17 -2
-13 -7 -26 -12 -29 -12 -19 0 -39 -11 -42 -25 -3 -10 -4 -56 -3 -104 1 -48 -2
-85 -7 -82 -4 3 -8 1 -8 -3 0 -8 -8 -10 -65 -15 -14 -1 -25 -6 -25 -11 0 -5
-7 -7 -15 -4 -8 4 -17 2 -20 -4 -4 -5 -10 -7 -15 -4 -5 3 -11 1 -15 -5 -4 -6
-11 -8 -16 -5 -5 4 -15 3 -21 -2 -7 -4 -17 -8 -23 -9 -33 -6 -127 -60 -138
-80 -5 -8 -13 -11 -19 -8 -6 4 -8 3 -4 -4 3 -6 -5 -19 -19 -30 -13 -11 -22
-22 -18 -25 3 -4 -2 -9 -11 -13 -9 -3 -16 -10 -16 -16 0 -5 -9 -27 -20 -50
-11 -22 -17 -45 -14 -49 3 -5 0 -9 -6 -9 -7 0 -10 -6 -7 -14 3 -8 2 -16 -3
-18 -8 -3 -17 -46 -25 -123 -1 -16 -4 -30 -5 -30 -6 0 -4 -127 2 -131 4 -3 3
-16 -2 -29 -5 -14 -6 -25 -2 -25 4 0 8 -19 10 -42 1 -23 6 -45 10 -48 4 -3 7
-15 6 -28 -1 -12 3 -25 8 -28 4 -3 6 -10 3 -15 -4 -5 -2 -9 2 -9 5 0 10 -10
10 -22 2 -22 12 -46 40 -100 8 -16 11 -28 6 -28 -4 0 -3 -4 2 -8 6 -4 22 -28
35 -54 14 -27 28 -48 32 -48 5 0 8 -6 8 -12 0 -7 14 -27 30 -45 17 -18 30 -34
30 -37 0 -9 81 -86 91 -86 6 0 8 -4 5 -8 -3 -5 7 -17 21 -28 15 -10 32 -25 40
-32 7 -7 13 -11 13 -8 0 3 11 -5 24 -17 39 -36 55 -47 65 -47 17 0 72 -62 67
-76 -3 -8 -2 -14 3 -14 5 0 8 -27 8 -60 0 -33 2 -62 5 -66 4 -3 -3 -15 -14
-26 -19 -19 -20 -19 -46 -1 -15 10 -31 18 -37 19 -5 0 -30 10 -54 22 -25 12
-51 22 -58 22 -7 0 -13 5 -13 10 0 6 -8 10 -17 10 -10 0 -26 7 -36 14 -18 14
-68 9 -117 -12 -40 -17 -63 -25 -85 -29 -11 -2 -36 -12 -55 -22 -26 -13 -35
-24 -33 -42 2 -36 8 -63 16 -76 4 -6 3 -14 -2 -18 -6 -3 -8 -12 -5 -19 3 -8 1
-17 -5 -21 -7 -3 -8 0 -5 9 4 10 1 16 -7 16 -7 0 -9 3 -6 7 4 3 2 12 -4 19 -9
11 -16 38 -21 82 -1 6 -4 12 -8 12 -4 0 -7 6 -8 13 -3 42 -7 57 -15 57 -5 0
-7 6 -4 14 3 8 3 17 -1 21 -4 4 -8 11 -8 16 -1 5 -2 10 -4 12 -3 4 -11 41 -13
64 -1 13 -5 23 -8 23 -3 0 -6 6 -6 13 -3 40 -8 67 -13 67 -3 0 -7 16 -8 37 -2
20 -5 40 -8 45 -6 9 -11 40 -19 113 -2 22 -7 58 -10 80 -3 22 -7 78 -9 125 -3
47 -5 87 -6 90 -4 13 8 275 15 308 2 12 7 27 11 34 5 7 3 8 -6 3 -8 -5 -11 -4
-7 2 10 16 26 100 30 151 0 12 5 22 10 22 4 0 6 4 3 9 -3 5 1 21 9 37 7 15 12
31 9 36 -3 5 0 15 6 23 7 8 10 15 6 15 -3 0 -1 12 5 28 6 15 13 38 16 52 2 13
7 27 11 30 4 3 8 14 10 24 2 10 17 49 35 85 17 36 30 69 29 74 -1 4 2 7 8 7 6
0 9 3 8 8 -1 4 11 27 27 52 16 25 29 48 30 51 0 3 7 13 15 22 8 9 22 24 30 34
60 71 90 103 90 99 0 -3 9 3 20 14 11 11 20 25 20 31 0 5 5 7 10 4 6 -3 10 -1
10 5 0 6 5 8 10 5 6 -3 10 1 10 10 0 9 5 13 10 10 6 -3 10 -2 10 2 0 5 18 19
40 33 22 14 40 28 40 33 0 4 4 6 9 2 5 -3 17 2 25 11 9 8 16 13 16 9 0 -3 12
3 27 12 15 10 27 17 28 15 0 -2 13 1 28 7 16 6 32 9 36 7 4 -3 13 -1 21 4 8 5
22 5 32 -1 10 -5 18 -6 18 -2z m676 -2596 c-4 -5 -1 -11 4 -13 6 -2 13 -10 14
-18 14 -62 20 -80 28 -80 5 0 4 -9 -2 -20 -6 -11 -7 -20 -2 -20 5 0 9 -38 9
-85 0 -47 -4 -85 -9 -85 -5 0 -7 -4 -3 -9 3 -5 0 -13 -6 -17 -6 -3 -15 -1 -19
6 -4 6 -11 11 -16 11 -5 -1 -9 9 -9 21 -1 13 -4 29 -8 36 -5 7 -3 12 5 12 8 0
9 3 3 8 -11 8 -12 43 -1 60 3 6 2 13 -2 16 -5 3 -6 27 -2 53 4 26 4 49 0 51
-11 4 3 82 15 82 4 0 4 -4 1 -9z m-793 -535 c7 4 9 4 5 -1 -5 -5 1 -15 12 -22
11 -8 18 -19 15 -24 -4 -5 0 -9 7 -9 8 0 14 -9 15 -20 1 -11 -3 -19 -10 -17
-16 3 -36 21 -31 29 2 3 -3 13 -11 21 -8 9 -15 21 -15 27 0 6 -5 8 -12 4 -7
-4 -8 -3 -4 4 4 7 2 12 -3 12 -6 0 -11 8 -11 17 0 14 3 13 16 -5 8 -12 21 -19
27 -16z m378 -245 c4 -1 7 -26 8 -56 0 -31 3 -60 6 -65 3 -6 2 -10 -4 -10 -6
0 -8 -6 -5 -14 4 -11 0 -13 -18 -9 -13 4 -25 9 -28 12 -3 4 -29 24 -58 45 -42
31 -50 41 -41 52 6 8 20 14 30 14 11 0 19 4 19 8 0 13 42 31 65 27 11 -2 23
-4 26 -4z"/>
</g>
</svg>
